<?xml version="1.0" encoding="utf-8"?>
<!-- Generator: Adobe Illustrator 19.2.1, SVG Export Plug-In . SVG Version: 6.00 Build 0)  -->
<svg version="1.1" id="Layer_1" xmlns="http://www.w3.org/2000/svg" xmlns:xlink="http://www.w3.org/1999/xlink" x="0px" y="0px"
	 viewBox="0 0 68.7 68.7" style="enable-background:new 0 0 68.7 68.7;" xml:space="preserve">
<style type="text/css">
	.st0{fill:#283270;}
	.st1{fill:#FFFFFF;}
	.st2{clip-path:url(#SVGID_2_);}
	.st3{display:none;}
	.st4{display:inline;fill:#FFFFFF;stroke:#273370;stroke-miterlimit:10;}
	.st5{display:none;fill:#FFFFFF;stroke:#273370;stroke-miterlimit:10;}
	.st6{fill:#FFFFFF;stroke:#273370;stroke-miterlimit:10;}
</style>
<circle class="st0" cx="34.3" cy="34" r="32.5"/>
<circle class="st0" cx="34.3" cy="33.5" r="32.5"/>
<g>
	<path class="st1" d="M35,12.4c-0.2,0.1-0.2,0.3-0.6,0.2c-0.5,0-1,0-1.4,0c-3.3-0.1-6.4,0.1-9.6,0c-1,0-2-0.1-3.1,0.1
		s-2,0.5-2.4,1.2c0.2,0,0.2,0,0.3,0.1c2.6,0,5.2-0.1,7.8,0c2.6,0,5.2-0.1,7.8,0c0.2,0,0.5,0,0.4,0.3c-0.1,0.3-0.2,0.3-0.6,0.3
		c-1.6,0.1-3.1,0-4.7,0.1c-3.6,0-7.3,0.2-11,0.1c-0.5,0-0.7,0-0.6,0.3c-0.3,1.1,0.1,1.9,1.5,2.5l0,0c0.8,0.4,1.3,0.4,2.1-0.1
		c0.2-0.1,0.4-0.2,0.6-0.3c0.4-0.2,0.9-0.3,1.4,0c0.1,0.2,0.4,0.3,0.5,0.5c0.3,0.2,0.8,0.2,1,0c0.5-0.4,0.9-0.8,1.3-1
		c0.2-0.3,0.9-0.3,1,0c0.4,0.3,0.7,0.7,1.1,1c0.3,0.2,0.6,0.2,0.9-0.1c0.2-0.1,0.4-0.2,0.5-0.4c0.7-0.5,1.3-0.5,1.7,0
		c0.4,0.5,0.9,0.6,1.8,0.5c0.4-0.1,0.5,0,0.9-0.1c0.4-0.1,0.5,0,0.6,0.2c0.4,0.3,0.8,0.7,1.3,1C36.6,19.6,37,10.8,35,12.4z"/>
	<ellipse transform="matrix(0.9911 -0.1332 0.1332 0.9911 -1.6584 5.634)" class="st1" cx="41.3" cy="15.2" rx="7.4" ry="7.4"/>
	<ellipse transform="matrix(0.9911 -0.1332 0.1332 0.9911 -1.6196 6.0965)" class="st0" cx="44.7" cy="15.2" rx="2.5" ry="2.5"/>
</g>
<g>
	<g>
		<g>
			<defs>
				<circle id="SVGID_1_" cx="34.3" cy="34" r="32.5"/>
			</defs>
			<clipPath id="SVGID_2_">
				<use xlink:href="#SVGID_1_"  style="overflow:visible;"/>
			</clipPath>
			<g class="st2">
				<g class="st3">
					<circle class="st4" cx="12.9" cy="38" r="6.3"/>
					<path class="st4" d="M18,67.7h-9c-3,0-5.3-2.4-5.3-5.3v-9.7c0-3,2.4-5.3,5.3-5.3h9c3,0,5.3,2.4,5.3,5.3v9.7
						C23.2,65.3,20.9,67.7,18,67.7z"/>
				</g>
				<circle class="st5" cx="53.2" cy="41.1" r="6.3"/>
				<path class="st5" d="M58.4,66.8h-9c-3,0-5.3-2.4-5.3-5.3v-9.7c0-3,2.4-5.3,5.3-5.3h9c3,0,5.3,2.4,5.3,5.3v9.7
					C63.8,64.4,61.3,66.8,58.4,66.8z"/>
				<circle class="st6" cx="34.3" cy="38.6" r="9.7"/>
				<path class="st1" d="M41.5,74.4H27.2c-1.9,0-3.5-2-3.5-4.5V57c0-6,3.8-10.9,8.5-10.9h4.4c4.7,0,8.4,4.8,8.4,10.8v13
					C45,72.4,43.4,74.4,41.5,74.4z"/>
				<circle class="st6" cx="55.6" cy="42.6" r="6"/>
				<path class="st1" d="M61.3,68.7H50.1c-1.5,0-2.8-1.5-2.8-3.4v-9.8c0-4.5,3-8.2,6.7-8.2h3.4c3.7,0,6.6,3.6,6.6,8.1v9.8
					C64.1,67.1,62.9,68.7,61.3,68.7z"/>
				<circle class="st6" cx="12.7" cy="42.6" r="6"/>
				<path class="st1" d="M18.5,68.7H7.2c-1.5,0-2.8-1.5-2.8-3.4v-9.8c0-4.5,3-8.2,6.7-8.2h3.4c3.7,0,6.6,3.6,6.6,8.1v9.8
					C21.2,67.1,20,68.7,18.5,68.7z"/>
			</g>
		</g>
	</g>
</g>
</svg>
